HIERARCHY
ROOT Hips
{
	OFFSET 63.676220 98.576553 21.556807
	CHANNELS 6 Xposition Yposition Zposition Xrotation Yrotation Zrotation
	JOINT LeftUpLeg
	{
		OFFSET 8.910000 -6.269997 0.000000
		CHANNELS 6 Xposition Yposition Zposition Xrotation Yrotation Zrotation
		JOINT LeftLeg
		{
			OFFSET -0.070457 -44.094959 -8.350026
			CHANNELS 6 Xposition Yposition Zposition Xrotation Yrotation Zrotation
			JOINT LeftFoot
			{
				OFFSET -0.063889 -39.979401 -7.629657
				CHANNELS 6 Xposition Yposition Zposition Xrotation Yrotation Zrotation
				JOINT LeftToeBase
				{
					OFFSET 0.000008 -6.262319 12.954721
					CHANNELS 6 Xposition Yposition Zposition Xrotation Yrotation Zrotation
					JOINT LeftToeBaseEnd
					{
						OFFSET 0.000000 0.000000 8.000000
						CHANNELS 6 Xposition Yposition Zposition Xrotation Yrotation Zrotation
						End Site
						{
							OFFSET 0.000000 8.000001 0.000000
						}
					}
				}
			}
		}
	}
	JOINT RightUpLeg
	{
		OFFSET -8.910000 -6.269997 0.000000
		CHANNELS 6 Xposition Yposition Zposition Xrotation Yrotation Zrotation
		JOINT RightLeg
		{
			OFFSET -2.287071 -44.300735 -6.804920
			CHANNELS 6 Xposition Yposition Zposition Xrotation Yrotation Zrotation
			JOINT RightFoot
			{
				OFFSET -2.070187 -40.021637 -7.109919
				CHANNELS 6 Xposition Yposition Zposition Xrotation Yrotation Zrotation
				JOINT RightToeBase
				{
					OFFSET -0.001083 -6.262318 12.954752
					CHANNELS 6 Xposition Yposition Zposition Xrotation Yrotation Zrotation
					JOINT RightToeBaseEnd
					{
						OFFSET -0.000671 -0.000407 8.000002
						CHANNELS 6 Xposition Yposition Zposition Xrotation Yrotation Zrotation
						End Site
						{
							OFFSET 0.000000 8.000001 0.000406
						}
					}
				}
			}
		}
	}
	JOINT Spine
	{
		OFFSET 0.000000 7.000000 0.000000
		CHANNELS 6 Xposition Yposition Zposition Xrotation Yrotation Zrotation
		JOINT Spine1
		{
			OFFSET 0.667820 12.296143 -2.967037
			CHANNELS 3 Xrotation Yrotation Zrotation
			JOINT Spine2
			{
				OFFSET 0.339264 12.572098 -1.507305
				CHANNELS 3 Xrotation Yrotation Zrotation
				JOINT LeftShoulder
				{
					OFFSET 7.006538 14.251984 -0.029060
					CHANNELS 6 Xposition Yposition Zposition Xrotation Yrotation Zrotation
					JOINT LeftArm
					{
						OFFSET 10.707253 -0.004776 0.000004
						CHANNELS 6 Xposition Yposition Zposition Xrotation Yrotation Zrotation
						JOINT LeftForeArm
						{
							OFFSET 27.283127 -0.771774 0.789974
							CHANNELS 6 Xposition Yposition Zposition Xrotation Yrotation Zrotation
							JOINT LeftHand
							{
								OFFSET 26.675308 -0.754562 0.772364
								CHANNELS 6 Xposition Yposition Zposition Xrotation Yrotation Zrotation
								JOINT LeftHandThumb1
								{
									OFFSET 4.348770 -0.798492 4.282434
									CHANNELS 6 Xposition Yposition Zposition Xrotation Yrotation Zrotation
									JOINT LeftHandThumb2
									{
										OFFSET 2.512589 -0.536102 0.707455
										CHANNELS 6 Xposition Yposition Zposition Xrotation Yrotation Zrotation
										JOINT LeftHandThumb3
										{
											OFFSET 2.543137 0.000000 0.000010
											CHANNELS 6 Xposition Yposition Zposition Xrotation Yrotation Zrotation
											JOINT LeftHandThumb4
											{
												OFFSET 2.666748 0.000015 -0.000008
												CHANNELS 6 Xposition Yposition Zposition Xrotation Yrotation Zrotation
												End Site
												{
													OFFSET -0.000015 2.666748 0.000000
												}
											}
										}
									}
								}
								JOINT LeftHandIndex1
								{
									OFFSET 8.821976 0.199738 3.471670
									CHANNELS 6 Xposition Yposition Zposition Xrotation Yrotation Zrotation
									JOINT LeftHandIndex2
									{
										OFFSET 4.225327 0.000000 -0.000263
										CHANNELS 6 Xposition Yposition Zposition Xrotation Yrotation Zrotation
										JOINT LeftHandIndex3
										{
											OFFSET 2.652328 0.000000 -0.092787
											CHANNELS 6 Xposition Yposition Zposition Xrotation Yrotation Zrotation
											JOINT LeftHandIndex4
											{
												OFFSET 1.953445 0.000000 -0.136721
												CHANNELS 6 Xposition Yposition Zposition Xrotation Yrotation Zrotation
												End Site
												{
													OFFSET -0.000015 1.958221 0.000002
												}
											}
										}
									}
								}
								JOINT LeftHandMiddle1
								{
									OFFSET 8.809891 0.500900 1.304684
									CHANNELS 6 Xposition Yposition Zposition Xrotation Yrotation Zrotation
									JOINT LeftHandMiddle2
									{
										OFFSET 4.863251 0.000000 0.000000
										CHANNELS 6 Xposition Yposition Zposition Xrotation Yrotation Zrotation
										JOINT LeftHandMiddle3
										{
											OFFSET 2.765244 0.000000 -0.000172
											CHANNELS 6 Xposition Yposition Zposition Xrotation Yrotation Zrotation
											JOINT LeftHandMiddle4
											{
												OFFSET 2.005630 0.000000 -0.000250
												CHANNELS 6 Xposition Yposition Zposition Xrotation Yrotation Zrotation
												End Site
												{
													OFFSET 0.000000 2.005630 0.000000
												}
											}
										}
									}
								}
								JOINT LeftHandRing1
								{
									OFFSET 8.893768 0.379929 -0.793159
									CHANNELS 6 Xposition Yposition Zposition Xrotation Yrotation Zrotation
									JOINT LeftHandRing2
									{
										OFFSET 4.537766 0.000000 -0.000282
										CHANNELS 6 Xposition Yposition Zposition Xrotation Yrotation Zrotation
										JOINT LeftHandRing3
										{
											OFFSET 2.304535 0.000000 -0.000286
											CHANNELS 6 Xposition Yposition Zposition Xrotation Yrotation Zrotation
											JOINT LeftHandRing4
											{
												OFFSET 1.923355 0.000000 -0.000360
												CHANNELS 6 Xposition Yposition Zposition Xrotation Yrotation Zrotation
												End Site
												{
													OFFSET 0.000000 1.923340 0.000000
												}
											}
										}
									}
								}
								JOINT LeftHandPinky1
								{
									OFFSET 8.882278 -0.313019 -2.490356
									CHANNELS 6 Xposition Yposition Zposition Xrotation Yrotation Zrotation
									JOINT LeftHandPinky2
									{
										OFFSET 3.044098 0.000000 0.000000
										CHANNELS 6 Xposition Yposition Zposition Xrotation Yrotation Zrotation
										JOINT LeftHandPinky3
										{
											OFFSET 1.974503 -0.000031 0.000000
											CHANNELS 6 Xposition Yposition Zposition Xrotation Yrotation Zrotation
											JOINT LeftHandPinky4
											{
												OFFSET 1.666611 -0.000046 0.000000
												CHANNELS 6 Xposition Yposition Zposition Xrotation Yrotation Zrotation
												End Site
												{
													OFFSET 0.000061 1.666611 0.000000
												}
											}
										}
									}
								}
							}
						}
					}
				}
				JOINT RightShoulder
				{
					OFFSET -6.993458 14.258392 -0.029066
					CHANNELS 6 Xposition Yposition Zposition Xrotation Yrotation Zrotation
					JOINT RightArm
					{
						OFFSET -10.707275 0.005341 -0.000006
						CHANNELS 6 Xposition Yposition Zposition Xrotation Yrotation Zrotation
						JOINT RightForeArm
						{
							OFFSET -27.240664 -1.850800 0.341349
							CHANNELS 6 Xposition Yposition Zposition Xrotation Yrotation Zrotation
							JOINT RightHand
							{
								OFFSET -26.633043 -1.809418 0.369396
								CHANNELS 6 Xposition Yposition Zposition Xrotation Yrotation Zrotation
								JOINT RightHandThumb1
								{
									OFFSET -4.348381 -0.798508 4.282814
									CHANNELS 6 Xposition Yposition Zposition Xrotation Yrotation Zrotation
									JOINT RightHandThumb2
									{
										OFFSET -2.512527 -0.536087 0.707676
										CHANNELS 6 Xposition Yposition Zposition Xrotation Yrotation Zrotation
										JOINT RightHandThumb3
										{
											OFFSET -2.541588 0.000000 0.088820
											CHANNELS 6 Xposition Yposition Zposition Xrotation Yrotation Zrotation
											JOINT RightHandThumb4
											{
												OFFSET -2.665123 -0.000031 0.093138
												CHANNELS 6 Xposition Yposition Zposition Xrotation Yrotation Zrotation
												End Site
												{
													OFFSET -0.000046 2.666748 0.000000
												}
											}
										}
									}
								}
								JOINT RightHandIndex1
								{
									OFFSET -8.821671 0.199722 3.472445
									CHANNELS 6 Xposition Yposition Zposition Xrotation Yrotation Zrotation
									JOINT RightHandIndex2
									{
										OFFSET -4.225320 0.000000 0.000114
										CHANNELS 6 Xposition Yposition Zposition Xrotation Yrotation Zrotation
										JOINT RightHandIndex3
										{
											OFFSET -2.652321 0.000000 0.092695
											CHANNELS 6 Xposition Yposition Zposition Xrotation Yrotation Zrotation
											JOINT RightHandIndex4
											{
												OFFSET -1.953445 0.000000 0.136656
												CHANNELS 6 Xposition Yposition Zposition Xrotation Yrotation Zrotation
												End Site
												{
													OFFSET 0.000000 1.958221 0.000000
												}
											}
										}
									}
								}
								JOINT RightHandMiddle1
								{
									OFFSET -8.809770 0.500885 1.305458
									CHANNELS 6 Xposition Yposition Zposition Xrotation Yrotation Zrotation
									JOINT RightHandMiddle2
									{
										OFFSET -4.863252 0.000000 0.000132
										CHANNELS 6 Xposition Yposition Zposition Xrotation Yrotation Zrotation
										JOINT RightHandMiddle3
										{
											OFFSET -2.763550 0.000000 0.096584
											CHANNELS 6 Xposition Yposition Zposition Xrotation Yrotation Zrotation
											JOINT RightHandMiddle4
											{
												OFFSET -2.000740 0.000000 0.139965
												CHANNELS 6 Xposition Yposition Zposition Xrotation Yrotation Zrotation
												End Site
												{
													OFFSET 0.000000 2.005630 0.000000
												}
											}
										}
									}
								}
								JOINT RightHandRing1
								{
									OFFSET -8.893830 0.379913 -0.792377
									CHANNELS 6 Xposition Yposition Zposition Xrotation Yrotation Zrotation
									JOINT RightHandRing2
									{
										OFFSET -4.537766 0.000000 0.000122
										CHANNELS 6 Xposition Yposition Zposition Xrotation Yrotation Zrotation
										JOINT RightHandRing3
										{
											OFFSET -2.303116 0.000000 0.080492
											CHANNELS 6 Xposition Yposition Zposition Xrotation Yrotation Zrotation
											JOINT RightHandRing4
											{
												OFFSET -1.918663 0.000000 0.134222
												CHANNELS 6 Xposition Yposition Zposition Xrotation Yrotation Zrotation
												End Site
												{
													OFFSET 0.000000 1.923355 0.000000
												}
											}
										}
									}
								}
								JOINT RightHandPinky1
								{
									OFFSET -8.882493 -0.313034 -2.489574
									CHANNELS 6 Xposition Yposition Zposition Xrotation Yrotation Zrotation
									JOINT RightHandPinky2
									{
										OFFSET -3.047799 0.000000 0.000083
										CHANNELS 6 Xposition Yposition Zposition Xrotation Yrotation Zrotation
										JOINT RightHandPinky3
										{
											OFFSET -1.975693 0.000000 0.069049
											CHANNELS 6 Xposition Yposition Zposition Xrotation Yrotation Zrotation
											JOINT RightHandPinky4
											{
												OFFSET -1.664574 0.000031 0.116447
												CHANNELS 6 Xposition Yposition Zposition Xrotation Yrotation Zrotation
												End Site
												{
													OFFSET 0.000065 1.668640 -0.000006
												}
											}
										}
									}
								}
							}
						}
					}
				}
				JOINT Neck
				{
					OFFSET 0.005814 12.666641 -0.025824
					CHANNELS 6 Xposition Yposition Zposition Xrotation Yrotation Zrotation
					JOINT Head
					{
						OFFSET -0.160309 9.695969 2.441845
						CHANNELS 3 Xrotation Yrotation Zrotation
						JOINT HeadEnd
						{
							OFFSET 0.000000 20.000000 0.000000
							CHANNELS 3 Xrotation Yrotation Zrotation
							End Site
							{
								OFFSET 0.000000 20.000000 0.000000
							}
						}
					}
				}
			}
		}
	}
}
MOTION
Frames: 3
Frame Time: 0.008333
57.039326 29.354614 75.116341 126.004546 192.087924 -7.192977 8.910003 -6.269985 0.000003 2.497155 2.121258 19.167447 -0.070468 -44.094978 -8.350015 104.462593 0.592851 8.030081 -0.063898 -39.979401 -7.629654 14.192306 -13.665245 14.848780 0.000007 -6.262320 12.954721 0.957577 -0.164971 -0.168587 -0.000008 0.000000 8.000000 0.000000 -0.000001 0.000001 -8.909987 -6.269993 0.000001 -73.125330 -26.450973 -5.070415 -2.287062 -44.300735 -6.804916 68.189296 -7.327882 -11.820129 -2.070190 -40.021648 -7.109919 62.488608 -1.880981 -16.431352 -0.001079 -6.262321 12.954763 22.005174 3.734286 -0.434189 -0.000675 -0.000409 8.000000 -0.000002 0.000000 0.000000 0.000005 7.000000 0.000004 1.788985 -3.522472 10.430373 4.696841 -7.368679 -0.685014 4.287325 -7.812835 -2.315905 7.006541 14.252016 -0.029060 22.475192 14.487769 -20.823442 10.707251 -0.004772 0.000011 37.378453 -44.933434 -45.050275 27.283119 -0.771784 0.789969 0.924268 -6.785368 0.186408 26.675323 -0.754560 0.772363 39.064427 -13.645017 -6.689536 4.348754 -0.798489 4.282435 0.370763 -7.380115 24.450896 2.512592 -0.536105 0.707453 0.000123 0.000223 0.000036 2.543135 -0.000006 0.000003 -0.000048 -0.000109 -0.000048 2.666753 0.000005 -0.000012 0.000000 0.000000 -0.000002 8.821980 0.199727 3.471675 1.287960 9.477419 12.274377 4.225310 -0.000028 -0.000264 -0.379162 -0.942172 -8.602196 2.652344 0.000007 -0.092791 -0.379148 -0.942200 -8.602029 1.953460 0.000001 -0.136719 -0.000000 -0.000000 0.000000 8.809886 0.500912 1.304688 4.005347 6.215978 9.347191 4.863247 0.000005 -0.000004 -0.586612 -1.330716 -12.333163 2.765234 0.000004 -0.000171 -0.586483 -1.330793 -12.332449 2.005630 0.000002 -0.000251 0.000000 0.000000 0.000000 8.893771 0.379942 -0.793154 9.960677 15.189403 1.567045 4.537754 -0.000003 -0.000286 -0.811624 -1.694024 -15.954053 2.304534 0.000000 -0.000280 -0.811499 -1.694054 -15.953585 1.923341 -0.000001 -0.000358 0.000000 0.000000 -0.000000 8.882267 -0.313015 -2.490355 9.984359 11.874245 -2.955022 3.044107 0.000002 -0.000004 -0.796476 -1.670319 -15.715787 1.974502 -0.000022 0.000004 -0.795725 -1.670546 -15.714104 1.666613 -0.000043 0.000002 -0.000000 0.000000 -0.000001 -6.993462 14.258411 -0.029069 44.737760 3.324028 4.590270 -10.707283 0.005334 -0.000009 -10.695824 20.717260 62.493396 -27.240660 -1.850772 0.341349 -0.402158 7.438575 -0.247052 -26.633045 -1.809414 0.369407 70.440048 14.816740 7.300565 -4.348381 -0.798503 4.282809 13.394307 -15.987577 -25.062104 -2.512523 -0.536074 0.707672 -0.744956 -10.745986 2.109275 -2.541587 0.000008 0.088809 -0.744920 -10.746059 2.109294 -2.665125 -0.000031 0.093143 0.000002 0.000001 0.000001 -8.821672 0.199730 3.472444 3.461478 -6.274345 -18.894012 -4.225326 -0.000000 0.000107 -0.403559 3.267618 23.449615 -2.652326 -0.000003 0.092687 -0.403550 3.267688 23.449494 -1.953454 0.000015 0.136664 0.000000 -0.000001 0.000000 -8.809772 0.500877 1.305450 8.548704 -10.108216 -10.186404 -4.863259 0.000001 0.000140 -0.236786 2.712807 19.346238 -2.763556 0.000014 0.096577 -0.236717 2.712806 19.345896 -2.000737 0.000016 0.139957 -0.000000 0.000000 0.000000 -8.893827 0.379910 -0.792375 10.438102 -25.362557 2.903949 -4.537761 0.000020 0.000111 -0.018600 1.520099 10.761518 -2.303114 0.000003 0.080469 -0.018314 1.520129 10.760428 -1.918666 -0.000001 0.134225 0.000000 0.000001 -0.000003 -8.882492 -0.313033 -2.489574 0.307388 -22.086981 1.786515 -3.047799 0.000017 0.000081 -1.209474 -0.481999 3.167181 -1.975693 -0.000003 0.069056 0.007280 0.002745 -0.022348 -1.664576 0.000015 0.116443 -0.000000 0.000002 -0.000000 0.005810 12.666644 -0.025821 40.072549 -0.705051 -10.391089 -6.286385 1.973454 4.120728 -0.000000 -0.000000 -0.000000 
56.977596 30.213562 74.832382 125.422832 191.869590 -6.923803 8.910001 -6.269990 0.000005 2.981797 2.410463 18.585845 -0.070458 -44.094978 -8.350022 104.224759 0.564883 8.067091 -0.063882 -39.979401 -7.629659 13.299211 -13.556891 14.697015 0.000005 -6.262319 12.954721 1.035879 -0.178579 -0.182250 -0.000008 -0.000000 7.999998 -0.000000 -0.000000 -0.000001 -8.910008 -6.270000 -0.000001 -69.743888 -26.182485 -4.565270 -2.287072 -44.300743 -6.804925 81.439419 -10.417656 -12.697803 -2.070183 -40.021637 -7.109920 62.089049 -2.351147 -17.640343 -0.001079 -6.262319 12.954746 22.186913 3.763983 -0.443689 -0.000671 -0.000406 8.000004 0.000001 0.000000 0.000000 -0.000001 7.000007 0.000003 -1.199854 -3.784071 9.738064 5.907286 -7.331232 -0.612242 5.497286 -7.808464 -2.398053 7.006542 14.252010 -0.029062 22.367958 14.536847 -20.582990 10.707258 -0.004776 0.000010 37.475394 -44.956630 -45.331887 27.283133 -0.771801 0.789977 0.957805 -6.491334 0.168940 26.675331 -0.754557 0.772375 39.188972 -13.881696 -6.238672 4.348756 -0.798508 4.282435 0.361585 -7.372758 24.446970 2.512584 -0.536092 0.707451 -0.000026 -0.000047 0.000000 2.543116 -0.000002 0.000003 0.000000 0.000028 0.000001 2.666742 0.000013 -0.000007 0.000000 -0.000000 0.000002 8.821957 0.199733 3.471674 1.291410 9.607185 12.235252 4.225309 -0.000029 -0.000265 -0.375025 -0.933796 -8.522880 2.652340 0.000003 -0.092787 -0.375026 -0.933791 -8.523025 1.953429 -0.000001 -0.136727 -0.000000 -0.000000 0.000000 8.809887 0.500906 1.304688 4.000493 6.354700 9.297960 4.863259 0.000006 -0.000002 -0.580301 -1.319783 -12.226209 2.765240 0.000001 -0.000170 -0.580205 -1.319839 -12.225630 2.005642 -0.000001 -0.000249 -0.000000 0.000000 -0.000005 8.893757 0.379942 -0.793156 9.906803 15.300991 1.526444 4.537759 0.000017 -0.000282 -0.803439 -1.681889 -15.829612 2.304522 0.000003 -0.000284 -0.803478 -1.681862 -15.829730 1.923333 -0.000001 -0.000359 0.000001 0.000000 -0.000003 8.882274 -0.313017 -2.490354 9.901472 11.988357 -2.974643 3.044099 0.000001 0.000003 -0.787136 -1.656491 -15.574276 1.974513 -0.000029 0.000006 -0.786702 -1.656648 -15.573311 1.666604 -0.000043 0.000002 -0.000000 0.000000 0.000003 -6.993461 14.258408 -0.029060 44.634695 3.167803 4.521184 -10.707277 0.005351 -0.000007 -10.443448 20.730621 62.503116 -27.240660 -1.850778 0.341349 -0.377460 7.159211 -0.228065 -26.633038 -1.809398 0.369386 70.524005 15.013620 6.829862 -4.348379 -0.798506 4.282827 13.451081 -16.038444 -25.046792 -2.512530 -0.536088 0.707677 -0.746151 -10.770891 2.114013 -2.541586 0.000015 0.088814 -0.746257 -10.770684 2.114067 -2.665123 -0.000030 0.093142 0.000001 0.000003 -0.000005 -8.821680 0.199723 3.472430 3.473518 -6.293697 -18.901908 -4.225319 0.000003 0.000098 -0.404591 3.270610 23.472415 -2.652330 -0.000005 0.092675 -0.404566 3.270627 23.472077 -1.953447 0.000015 0.136653 -0.000000 -0.000000 -0.000000 -8.809767 0.500885 1.305459 8.555399 -10.100236 -10.193561 -4.863253 0.000007 0.000129 -0.237546 2.715752 19.367652 -2.763552 0.000020 0.096597 -0.237495 2.715737 19.367428 -2.000740 0.000014 0.139962 0.000001 -0.000001 -0.000000 -8.893826 0.379915 -0.792385 10.449542 -25.352327 2.903639 -4.537760 0.000005 0.000115 -0.018666 1.522595 10.778173 -2.303121 0.000005 0.080489 -0.018689 1.522599 10.778258 -1.918664 -0.000001 0.134210 0.000001 -0.000000 -0.000003 -8.882492 -0.313040 -2.489575 0.310540 -22.038558 1.769473 -3.047800 0.000024 0.000082 -1.221532 -0.487197 3.199096 -1.975690 -0.000008 0.069042 0.012589 0.004639 -0.038525 -1.664566 0.000015 0.116463 -0.000000 -0.000005 0.000000 0.005816 12.666656 -0.025828 38.164263 -0.438713 -10.138098 -4.475002 2.077946 3.910777 -0.000000 0.000000 -0.000000 
57.009483 30.941063 74.440033 124.410980 191.579880 -6.621469 8.910018 -6.269993 -0.000001 2.931623 2.444175 17.481517 -0.070458 -44.094971 -8.350020 104.287672 0.603359 8.103657 -0.063886 -39.979397 -7.629655 12.310831 -13.190458 14.422597 0.000015 -6.262320 12.954724 1.090551 -0.188100 -0.191780 -0.000008 -0.000000 7.999997 -0.000000 -0.000000 -0.000000 -8.909990 -6.269991 -0.000010 -64.075897 -24.756057 -3.670324 -2.287069 -44.300728 -6.804907 92.058758 -12.597490 -12.969761 -2.070190 -40.021641 -7.109900 61.120590 -3.696951 -16.198142 -0.001073 -6.262314 12.954761 22.958004 3.889562 -0.485076 -0.000671 -0.000402 8.000000 0.000001 -0.000000 -0.000000 0.000003 6.999999 -0.000006 -4.068263 -3.937600 9.003965 6.782453 -7.317126 -0.614653 6.375719 -7.788249 -2.548157 7.006538 14.251978 -0.029059 22.397676 14.664392 -20.344191 10.707253 -0.004765 0.000009 37.668463 -44.871703 -45.519789 27.283119 -0.771792 0.789972 1.023398 -6.255348 0.169947 26.675301 -0.754556 0.772365 39.292531 -14.133146 -5.738406 4.348752 -0.798494 4.282432 0.334463 -7.306015 24.437039 2.512581 -0.536102 0.707453 -0.000038 -0.000061 -0.000001 2.543138 -0.000002 0.000002 0.000000 0.000049 0.000001 2.666747 0.000014 -0.000010 0.000000 0.000001 0.000001 8.821941 0.199714 3.471678 1.294578 9.812395 12.168261 4.225303 -0.000008 -0.000260 -0.367907 -0.919271 -8.385940 2.652344 0.000002 -0.092781 -0.367926 -0.919296 -8.386210 1.953431 -0.000001 -0.136721 0.000000 -0.000000 -0.000000 8.809891 0.500900 1.304685 3.979395 6.577201 9.205255 4.863229 0.000002 0.000002 -0.567740 -1.297805 -12.011616 2.765233 -0.000000 -0.000165 -0.567634 -1.297850 -12.011058 2.005623 -0.000000 -0.000245 -0.000000 -0.000001 -0.000003 8.893763 0.379937 -0.793154 9.797325 15.490222 1.458124 4.537778 0.000017 -0.000285 -0.788201 -1.658575 -15.593930 2.304533 0.000003 -0.000290 -0.788133 -1.658602 -15.593634 1.923351 0.000004 -0.000361 -0.000001 -0.000000 0.000002 8.882263 -0.313016 -2.490347 9.720230 12.175380 -2.997132 3.044115 0.000010 0.000002 -0.768442 -1.627944 -15.285058 1.974490 -0.000038 0.000002 -0.768151 -1.628050 -15.284369 1.666613 -0.000048 0.000002 0.000000 0.000000 -0.000001 -6.993463 14.258398 -0.029053 44.652331 3.061206 4.516601 -10.707279 0.005353 -0.000007 -10.194399 20.766729 62.529672 -27.240652 -1.850773 0.341351 -0.357809 6.935173 -0.214461 -26.633047 -1.809418 0.369402 70.670048 15.172692 6.378707 -4.348373 -0.798501 4.282822 13.434531 -16.017591 -25.052941 -2.512532 -0.536092 0.707672 -0.745334 -10.753236 2.110668 -2.541588 0.000013 0.088805 -0.745342 -10.753230 2.110683 -2.665122 -0.000030 0.093137 0.000000 0.000002 -0.000001 -8.821674 0.199725 3.472450 3.487911 -6.309348 -18.920671 -4.225319 0.000002 0.000115 -0.406694 3.276790 23.518506 -2.652328 -0.000000 0.092699 -0.406671 3.276735 23.518269 -1.953445 0.000016 0.136658 -0.000000 0.000000 0.000002 -8.809763 0.500901 1.305475 8.572528 -10.101943 -10.201433 -4.863248 0.000003 0.000143 -0.238851 2.720657 19.403685 -2.763555 0.000015 0.096588 -0.238786 2.720666 19.403364 -2.000736 0.000016 0.139970 0.000000 -0.000002 0.000002 -8.893829 0.379909 -0.792369 10.474519 -25.345877 2.907203 -4.537763 -0.000002 0.000118 -0.019267 1.526909 10.809814 -2.303113 0.000010 0.080471 -0.019082 1.526978 10.809044 -1.918662 -0.000001 0.134225 0.000001 -0.000003 0.000003 -8.882488 -0.313041 -2.489570 0.298916 -21.987953 1.755194 -3.047800 0.000011 0.000090 -1.223841 -0.488207 3.205208 -1.975691 -0.000020 0.069050 0.013631 0.005042 -0.041658 -1.664570 0.000015 0.116460 -0.000000 -0.000002 -0.000000 0.005804 12.666635 -0.025835 35.769673 -0.022739 -9.871559 -2.080375 2.240486 3.676554 -0.000000 -0.000000 0.000000 
